HIERARCHY
ROOT Joint1
{
	OFFSET 0.000000 0.000000 0.000000
	CHANNELS 6 Xposition Yposition Zposition Xrotation Yrotation Zrotation
	JOINT Joint2
	{
		OFFSET -0.000000 0.000000 1.456275
		CHANNELS 6 Xposition Yposition Zposition Xrotation Yrotation Zrotation
		JOINT Joint3
		{
			OFFSET -0.000000 0.000002 1.471446
			CHANNELS 6 Xposition Yposition Zposition Xrotation Yrotation Zrotation
			JOINT Joint4
			{
				OFFSET 0.625745 0.000000 0.917755
				CHANNELS 6 Xposition Yposition Zposition Xrotation Yrotation Zrotation
				JOINT Joint5
				{
					OFFSET -0.629534 0.000001 0.940221
					CHANNELS 6 Xposition Yposition Zposition Xrotation Yrotation Zrotation
					JOINT Joint6
					{
						OFFSET -0.000001 0.113772 1.960660
						CHANNELS 6 Xposition Yposition Zposition Xrotation Yrotation Zrotation
						JOINT Joint7
						{
							OFFSET -0.669733 -0.113771 0.388340
							CHANNELS 6 Xposition Yposition Zposition Xrotation Yrotation Zrotation
							End Site
							{
								OFFSET 0.005509 0.005509 0.438980
							}
						}
					}
				}
			}
		}
	}
}
MOTION
Frames: 9
Frame Time: 0.041667
0.000000 0.000000 0.000000 -0.000000 1.019410 62.437047 -0.000000 0.000000 1.456275 -0.000000 -2.074705 -0.000001 -0.000000 0.000002 1.471445 -0.000002 -1.133464 -54.271235 0.625745 0.000000 0.917755 0.000003 151.901809 -0.000000 -0.629534 0.000001 0.940220 -0.000001 1.709736 81.826541 -0.000001 0.113772 1.960660 -88.303875 145.510965 0.000002 -0.669733 -0.113771 0.388340 -0.972914 3.530591 150.215941 
0.000000 0.000000 0.000000 -0.000000 1.019410 63.676112 -0.000000 -0.000000 1.456275 0.000000 -1.223299 -0.000003 -0.000000 0.000002 1.471446 -0.000002 -1.133464 -55.347427 0.625744 0.000000 0.917755 0.000003 152.236734 -0.000001 -0.629534 0.000001 0.940221 -0.000000 1.709737 83.450363 -0.000001 0.113772 1.960661 -88.303875 146.612961 0.000003 -0.669733 -0.113771 0.388340 -0.978099 3.529167 150.518573 
0.000000 0.000000 0.000000 -0.000000 1.019410 65.342938 -0.000000 0.000000 1.456275 -0.000000 -0.077969 0.000001 -0.000000 0.000002 1.471445 -0.000003 -1.133464 -56.795140 0.625745 0.000000 0.917755 0.000003 152.687281 0.000000 -0.629534 0.000001 0.940221 -0.000000 1.709739 85.634760 -0.000001 0.113772 1.960661 -88.303882 148.095358 0.000001 -0.669733 -0.113771 0.388340 -0.985054 3.527211 150.925679 
0.000000 0.000000 0.000000 -0.000000 1.019410 67.214239 0.000000 -0.000000 1.456275 -0.000000 1.207857 0.000000 -0.000000 0.000002 1.471446 -0.000002 -1.133464 -58.420445 0.625745 0.000000 0.917755 0.000003 153.193097 -0.000001 -0.629533 0.000001 0.940221 -0.000000 1.709734 88.087126 -0.000001 0.113772 1.960661 -88.303882 149.759616 0.000002 -0.669733 -0.113771 0.388340 -0.992853 3.524960 151.382742 
0.000000 0.000000 0.000000 -0.000000 1.019410 69.017381 -0.000000 0.000000 1.456275 0.000000 2.446851 0.000002 -0.000000 0.000002 1.471445 -0.000003 -1.133464 -59.986553 0.625745 0.000000 0.917755 0.000003 153.680499 -0.000001 -0.629534 0.000001 0.940221 -0.000001 1.709735 90.450167 -0.000001 0.113772 1.960661 -88.303882 151.363262 0.000002 -0.669733 -0.113771 0.388340 -1.000354 3.522727 151.823166 
0.000000 0.000000 0.000000 -0.000000 1.019410 70.752365 -0.000000 -0.000000 1.456275 -0.000000 3.639013 0.000001 -0.000000 0.000002 1.471446 -0.000003 -1.133465 -61.493470 0.625745 0.000000 0.917755 0.000003 154.149447 -0.000002 -0.629534 0.000001 0.940221 -0.000000 1.709734 92.723889 -0.000001 0.113772 1.960661 -88.303882 152.906297 0.000002 -0.669733 -0.113771 0.388340 -1.007548 3.520526 152.246911 
0.000000 0.000000 0.000000 -0.000000 1.019410 72.487350 -0.000000 0.000000 1.456275 0.000000 4.831174 -0.000000 -0.000000 0.000002 1.471445 -0.000003 -1.133465 -63.000381 0.625745 0.000000 0.917755 0.000004 154.618421 -0.000002 -0.629534 0.000001 0.940221 -0.000001 1.709736 94.997604 -0.000001 0.113772 1.960661 -88.303882 154.449333 0.000002 -0.669733 -0.113771 0.388341 -1.014729 3.518270 152.670670 
0.000000 0.000000 0.000000 -0.000000 1.019410 74.290492 -0.000000 0.000000 1.456275 -0.000000 6.070169 0.000000 -0.000000 0.000002 1.471445 -0.000003 -1.133465 -64.566489 0.625745 0.000000 0.917755 0.000003 155.105796 -0.000001 -0.629534 0.000001 0.940221 -0.000001 1.709739 97.360645 -0.000001 0.113772 1.960660 -88.303882 156.052979 0.000002 -0.669733 -0.113771 0.388340 -1.022172 3.515871 153.111080 
0.000000 0.000000 0.000000 -0.000000 1.019410 76.161793 -0.000000 -0.000000 1.456275 0.000000 7.355995 0.000000 -0.000000 0.000002 1.471446 -0.000003 -1.133464 -66.191794 0.625745 0.000000 0.917755 0.000003 155.611599 -0.000001 -0.629534 0.000001 0.940220 -0.000001 1.709736 99.813004 -0.000001 0.113772 1.960660 -88.303882 157.717237 0.000001 -0.669733 -0.113771 0.388340 -1.029877 3.513320 153.568129 
